<svg width="1778" height="1778" viewBox="0 0 1778 1778" fill="none" xmlns="http://www.w3.org/2000/svg">
<rect width="1778" height="1778" rx="50" fill="#125579"/>
<path d="M529.483 478.5C529.483 489.27 538.214 498 548.983 498C559.753 498 568.483 489.27 568.483 478.5V211.5C568.483 192.998 583.482 178 601.983 178C620.485 178 635.483 192.998 635.483 211.5V480.5C635.483 490.165 643.318 498 652.983 498C662.648 498 670.483 490.165 670.483 480.5V212.5C670.483 193.446 685.93 178 704.983 178C724.037 178 739.483 193.446 739.483 212.5V479C739.483 489.493 747.99 498 758.483 498C768.977 498 777.483 489.493 777.483 479V204.416C777.483 189.827 789.31 178 803.9 178C817.04 178 828.141 187.513 829.81 200.546C840.308 282.53 872.329 564.96 828.806 659.963C806.487 708.68 773.715 743.16 736.599 763.405C714.886 775.248 698.716 797.375 701.271 821.975C727.166 1071.3 773.21 1610.09 687.509 1610.09C660.954 1610.09 645.991 1612.07 619.509 1610.09C543.565 1604.43 584.139 1070.75 607.154 822.504C609.437 797.883 593.017 775.94 571.185 764.331C533.363 744.219 499.922 709.43 477.26 659.963C434.179 565.927 462.261 288.261 472.178 203.112C473.854 188.714 486.081 178 500.577 178C516.541 178 529.483 190.942 529.483 206.907V478.5Z" fill="white"/>
<path d="M1101.76 167C1191.88 167.002 1243.55 233.039 1277.53 316.501C1336.76 462 1328.67 548.845 1277.53 660.464C1255.21 709.181 1222.44 743.661 1185.32 763.906C1163.61 775.749 1147.44 797.876 1150 822.476C1175.89 1071.81 1221.94 1610.59 1136.23 1610.59C1109.68 1610.59 1094.72 1612.57 1068.23 1610.59C992.289 1604.93 1032.86 1071.25 1055.88 823.005C1058.16 798.383 1041.74 776.441 1019.91 764.832C982.088 744.72 948.648 709.931 925.985 660.464C874.849 548.845 877.264 445.5 925.985 316.501C957.826 232.198 1011.65 166.998 1101.76 167Z" fill="white"/>
</svg>
